<?xml version="1.0" encoding="UTF-8"?><svg id="Layer_1" xmlns="http://www.w3.org/2000/svg" viewBox="0 0 431.69 111.59"><defs><style>.cls-1{fill:#797979;}.cls-2{letter-spacing:0em;}.cls-2,.cls-3,.cls-4{fill:#fff;}.cls-2,.cls-4{font-family:ArialMT, Arial;font-size:40.55px;}.cls-5{letter-spacing:-.02em;}.cls-6{fill:#af1c0f;}</style></defs><text class="cls-4" transform="translate(0 98.42)"><tspan x="0" y="0">E</tspan></text><text class="cls-4" transform="translate(27.05 98.42) scale(.7)"><tspan x="0" y="0">LECTRICAL</tspan></text><text class="cls-4" transform="translate(183.21 98.42)"><tspan x="0" y="0" xml:space="preserve"> S</tspan></text><text class="cls-4" transform="translate(221.52 98.42) scale(.7)"><tspan x="0" y="0">E</tspan><tspan class="cls-5" x="27.05" y="0">R</tspan><tspan x="55.6" y="0">VICES</tspan></text><text class="cls-4" transform="translate(345.62 98.42)"><tspan x="0" y="0">, I</tspan></text><text class="cls-2" transform="translate(379.42 98.42) scale(.7)"><tspan x="0" y="0">NC</tspan></text><text class="cls-4" transform="translate(420.42 98.42)"><tspan x="0" y="0">.</tspan></text><rect class="cls-1" x="383.73" y="37.3" width="41.43" height="7.45"/><rect class="cls-1" x="383.73" y="15.55" width="41.43" height="7.45"/><polygon class="cls-6" points="397.79 35.02 9.15 35.02 13.7 25.28 397.79 25.28 397.79 35.02"/><path class="cls-6" d="M379.5,0h18.29v60.3h-18.29c-16.54,0-29.97-13.43-29.97-29.97v-.37C349.53,13.43,362.96,0,379.5,0Z"/><g id="REYCO"><path class="cls-3" d="M257.85,13.54l2.22-11.88h-36.42c-8.54,0-15.87,6.09-17.44,14.49l-4.82,25.81c-1.44,7.74,4.5,14.9,12.37,14.9h37.58l2.22-11.88h-35.6c-2.5,0-4.39-2.27-3.93-4.73l4.01-21.49c.56-3.02,3.2-5.21,6.27-5.21h33.52Z"/><path class="cls-3" d="M316.77,1.72v-.06s-1.06,0-1.06,0h-35.35c-8.54,0-15.87,6.09-17.44,14.49l-4.82,25.81c-1.44,7.74,4.5,14.9,12.37,14.9h37.58l.03-.16c7.55-.97,13.75-6.68,15.18-14.33l4.82-25.81c1.38-7.39-3.98-14.23-11.32-14.84ZM315.44,18.27l-4.01,21.49c-.56,3.02-3.2,5.21-6.27,5.21h-30.47c-2.5,0-4.39-2.27-3.93-4.73l4.01-21.49c.56-3.02,3.2-5.21,6.27-5.21h30.47c2.5,0,4.39,2.27,3.93,4.73Z"/><polygon class="cls-3" points="129.05 13.54 131.28 1.66 92.45 1.66 80.12 1.66 69.83 56.86 74.48 56.86 82.15 56.86 122.56 56.86 124.78 44.97 84.37 44.97 86.14 35.46 123.83 35.46 126.05 23.58 88.36 23.58 90.23 13.54 129.05 13.54"/><path class="cls-3" d="M189.93,1.66l-3.87,20.74h-35.58c-2.52,0-4.41-2.28-3.95-4.76l2.98-15.98h-12.33l-3.27,17.54c-1.58,8.45,4.91,16.26,13.51,16.26h10.26l-3.32,21.39h12.34l3.78-21.39h10.62c8.61,0,16-6.14,17.58-14.61l3.58-19.19h-12.33Z"/><path class="cls-3" d="M66.17,5.05c-2.66-2.26-6.1-3.39-9.59-3.39h-30.27s-11.07,0-11.07,0h-1.26L3.69,56.86h12.33l3.86-20.68h31.05c2.69,0,4.72,2.45,4.23,5.09l-2.91,15.59h12.33l3.3-17.71c.16-.86.22-1.74.16-2.62-.12-1.77-1.09-4.74-2.56-7.84,0,0,2.49-2.43,3.58-5.54,1.17-3.32,2.48-13.53-2.88-18.1ZM58.1,18.18s-.03.09-.04.14c-1,3.2-4.06,5.32-7.41,5.32h-28.43l1.88-10.09h28.67c1.56,0,3.1.52,4.24,1.59.83.78,1.47,1.82,1.1,3.04Z"/></g></svg>