<?xml version="1.0" encoding="UTF-8"?><svg id="Layer_1" xmlns="http://www.w3.org/2000/svg" viewBox="0 0 421.47 60.3"><defs><style>.cls-1{fill:#797979;}.cls-2{fill:#af1c0f;}</style></defs><rect class="cls-1" x="380.04" y="37.3" width="41.43" height="7.45"/><rect class="cls-1" x="380.04" y="15.55" width="41.43" height="7.45"/><polygon class="cls-2" points="394.1 35.02 5.47 35.02 10.01 25.28 394.1 25.28 394.1 35.02"/><path class="cls-2" d="M375.81,0h18.29v60.3h-18.29c-16.54,0-29.97-13.43-29.97-29.97v-.37C345.84,13.43,359.27,0,375.81,0Z"/><g id="REYCO"><path class="cls-1" d="M254.16,13.54l2.22-11.88h-36.42c-8.54,0-15.87,6.09-17.44,14.49l-4.82,25.81c-1.44,7.74,4.5,14.9,12.37,14.9h37.58l2.22-11.88h-35.6c-2.5,0-4.39-2.27-3.93-4.73l4.01-21.49c.56-3.02,3.2-5.21,6.27-5.21h33.52Z"/><path class="cls-1" d="M313.08,1.72v-.06s-1.06,0-1.06,0h-35.35c-8.54,0-15.87,6.09-17.44,14.49l-4.82,25.81c-1.44,7.74,4.5,14.9,12.37,14.9h37.58l.03-.16c7.55-.97,13.75-6.68,15.18-14.33l4.82-25.81c1.38-7.39-3.98-14.23-11.32-14.84ZM311.75,18.27l-4.01,21.49c-.56,3.02-3.2,5.21-6.27,5.21h-30.47c-2.5,0-4.39-2.27-3.93-4.73l4.01-21.49c.56-3.02,3.2-5.21,6.27-5.21h30.47c2.5,0,4.39,2.27,3.93,4.73Z"/><polygon class="cls-1" points="125.37 13.54 127.59 1.66 88.76 1.66 76.44 1.66 66.14 56.86 70.79 56.86 78.47 56.86 118.87 56.86 121.09 44.97 80.68 44.97 82.46 35.46 120.14 35.46 122.36 23.58 84.67 23.58 86.55 13.54 125.37 13.54"/><path class="cls-1" d="M186.25,1.66l-3.87,20.74h-35.58c-2.52,0-4.41-2.28-3.95-4.76l2.98-15.98h-12.33l-3.27,17.54c-1.58,8.45,4.91,16.26,13.51,16.26h10.26l-3.32,21.39h12.34l3.78-21.39h10.62c8.61,0,16-6.14,17.58-14.61l3.58-19.19h-12.33Z"/><path class="cls-1" d="M62.48,5.05c-2.66-2.26-6.1-3.39-9.59-3.39h-30.27s-11.07,0-11.07,0h-1.26L0,56.86h12.33l3.86-20.68h31.05c2.69,0,4.72,2.45,4.23,5.09l-2.91,15.59h12.33l3.3-17.71c.16-.86.22-1.74.16-2.62-.12-1.77-1.09-4.74-2.56-7.84,0,0,2.49-2.43,3.58-5.54,1.17-3.32,2.48-13.53-2.88-18.1ZM54.42,18.18s-.03.09-.04.14c-1,3.2-4.06,5.32-7.41,5.32h-28.43l1.88-10.09h28.67c1.56,0,3.1.52,4.24,1.59.83.78,1.47,1.82,1.1,3.04Z"/></g></svg>